<svg width="20" height="21" viewBox="0 0 20 21" fill="none" xmlns="http://www.w3.org/2000/svg">
<path fill-rule="evenodd" clip-rule="evenodd" d="M9.06411 0.52347C7.11802 0.711733 5.18903 1.50295 3.67646 2.73335C3.23155 3.09528 2.52711 3.80524 2.17227 4.24944C1.27504 5.37252 0.539798 6.89166 0.234865 8.25228C0.0433717 9.10694 0 9.52241 0 10.5028C0 11.4832 0.0433717 11.8987 0.234865 12.7534C0.546453 14.1437 1.30088 15.6845 2.22793 16.8239C2.5899 17.2688 3.29993 17.9732 3.74418 18.328C4.86738 19.2251 6.38668 19.9603 7.74745 20.2652C8.60221 20.4566 9.01772 20.5 9.99824 20.5C10.9788 20.5 11.3943 20.4566 12.249 20.2652C13.2721 20.0359 14.6099 19.4643 15.489 18.8808C17.0137 17.8687 18.1847 16.537 18.9842 14.9061C19.4739 13.907 19.7521 13.0123 19.9273 11.8727C20.0242 11.2422 20.0242 9.76348 19.9273 9.13293C19.7521 7.99337 19.4739 7.09863 18.9842 6.09958C18.4616 5.03349 17.879 4.22243 17.038 3.39004C16.2123 2.5728 15.4559 2.03576 14.402 1.51841C13.4147 1.03378 12.5007 0.747977 11.4074 0.581984C10.9158 0.507345 9.57639 0.47388 9.06411 0.52347ZM10.6302 3.38077C11.4115 3.45893 12.0647 3.62152 12.7775 3.91522C13.12 4.05636 13.6615 4.34373 13.8344 4.47606L13.9322 4.55101L9.00011 9.4839C6.28745 12.197 4.05612 14.4168 4.04152 14.4168C3.99462 14.4168 3.67603 13.8608 3.49209 13.4579C2.25564 10.7494 2.84171 7.54902 4.96 5.4416C6.46521 3.94415 8.5797 3.17563 10.6302 3.38077ZM16.1536 6.8726C16.386 7.25578 16.6574 7.85873 16.8031 8.31569C17.6217 10.8829 16.9431 13.6673 15.0365 15.5641C13.1648 17.4261 10.431 18.1137 7.94317 17.348C7.27252 17.1416 6.49457 16.7841 6.16211 16.5296L6.06425 16.4546L10.9964 11.5218C13.709 8.80866 15.9404 6.58883 15.955 6.58883C15.9695 6.58883 16.0589 6.71651 16.1536 6.8726Z" fill="white"/>
</svg>
