<svg width="14" height="15" viewBox="0 0 14 15" fill="none" xmlns="http://www.w3.org/2000/svg">
<path fill-rule="evenodd" clip-rule="evenodd" d="M11.7713 1.52345C11.2202 1.10692 10.6846 0.862844 10.0274 0.72868C8.96364 0.51156 7.85973 0.719811 6.92874 1.31328C6.66086 1.48404 6.10582 2.00184 5.89424 2.27837C5.34885 2.99118 5.03951 3.94316 5.0566 4.85615C5.06955 5.54797 5.21457 6.13164 5.51893 6.71681L5.67747 7.02159L3.17579 9.54533L0.674115 12.0691L0.633343 12.2048C0.577987 12.3891 0.582598 12.6394 0.644705 12.8221C0.684352 12.9388 0.734258 13.0117 0.861648 13.1391C1.05516 13.3326 1.23133 13.4074 1.49518 13.4079C1.76461 13.4084 1.89977 13.3502 2.14248 13.1293L2.35616 12.9348L2.8449 13.4226C3.27344 13.8503 3.34956 13.9162 3.46276 13.9577C3.70949 14.0483 3.92648 14.0015 4.10989 13.8181C4.31955 13.6084 4.32037 13.2637 4.1119 12.9922C3.9682 12.8052 3.98047 12.734 4.19313 12.5214C4.399 12.3155 4.49369 12.293 4.62175 12.4195C4.70777 12.5045 4.94024 12.6039 5.06777 12.6103C5.34338 12.6242 5.63277 12.3776 5.66176 12.1043C5.69347 11.8053 5.67758 11.7791 5.11002 11.1959L4.60385 10.6758L5.79149 9.49955L6.97918 8.32329L7.28395 8.48184C7.86913 8.78619 8.4528 8.93121 9.14462 8.94416C10.0576 8.96126 11.0096 8.65192 11.7224 8.10652C11.9989 7.89494 12.5167 7.33991 12.6875 7.07202C13.5844 5.66494 13.5782 3.88225 12.6715 2.50796C12.4685 2.20022 12.0249 1.71509 11.7713 1.52345ZM11.202 3.58116C11.6652 4.3149 11.6417 5.35971 11.1453 6.10263C10.4497 7.14346 9.03523 7.44411 7.9606 6.77954C7.74147 6.64403 7.35674 6.25929 7.22123 6.04017C6.66734 5.14453 6.76493 4.02588 7.46553 3.23923C7.75072 2.91905 8.02282 2.74015 8.45011 2.59195C9.49103 2.23091 10.6014 2.63007 11.202 3.58116Z" fill="#3E74FF"/>
</svg>
