<svg width="20" height="21" viewBox="0 0 20 21" fill="none" xmlns="http://www.w3.org/2000/svg">
<path fill-rule="evenodd" clip-rule="evenodd" d="M12.375 0.5C12.5408 0.5 12.6997 0.565848 12.8169 0.683058C12.9342 0.800268 13 0.95924 13 1.125C13 1.29076 13.0658 1.44973 13.1831 1.56694C13.3003 1.68415 13.4592 1.75 13.625 1.75C13.7908 1.75 13.9497 1.81585 14.0669 1.93306C14.1842 2.05027 14.25 2.20924 14.25 2.375V3C14.25 3.16576 14.1842 3.32473 14.0669 3.44194C13.9497 3.55915 13.7908 3.625 13.625 3.625H7.375C7.20924 3.625 7.05027 3.55915 6.93306 3.44194C6.81585 3.32473 6.75 3.16576 6.75 3V2.375C6.75 2.20924 6.81585 2.05027 6.93306 1.93306C7.05027 1.81585 7.20924 1.75 7.375 1.75C7.54076 1.75 7.69973 1.68415 7.81694 1.56694C7.93415 1.44973 8 1.29076 8 1.125C8 0.95924 8.06585 0.800268 8.18306 0.683058C8.30027 0.565848 8.45924 0.5 8.625 0.5H12.375ZM4.875 1.75H5.60625C5.53557 1.95078 5.49964 2.16214 5.5 2.375V3C5.5 3.49728 5.69754 3.97419 6.04917 4.32582C6.4008 4.67746 6.87772 4.875 7.375 4.875H13.625C14.1223 4.875 14.5992 4.67746 14.9508 4.32582C15.3025 3.97419 15.5 3.49728 15.5 3V2.375C15.5 2.15625 15.4625 1.945 15.3937 1.75H16.125C16.6223 1.75 17.0992 1.94754 17.4508 2.29917C17.8025 2.65081 18 3.12772 18 3.625V18.625C18 19.1223 17.8025 19.5992 17.4508 19.9508C17.0992 20.3025 16.6223 20.5 16.125 20.5H4.875C4.37772 20.5 3.90081 20.3025 3.54917 19.9508C3.19754 19.5992 3 19.1223 3 18.625V3.625C3 3.12772 3.19754 2.65081 3.54917 2.29917C3.90081 1.94754 4.37772 1.75 4.875 1.75ZM6.10272 7.83848C5.60566 7.83848 5.20272 8.24142 5.20272 8.73848C5.20272 9.23553 5.60566 9.63848 6.10272 9.63848H14.8973C15.3944 9.63848 15.7973 9.23553 15.7973 8.73848C15.7973 8.24142 15.3944 7.83848 14.8973 7.83848H6.10272ZM5.20272 12.4029C5.20272 11.9058 5.60566 11.5029 6.10272 11.5029H14.8973C15.3944 11.5029 15.7973 11.9058 15.7973 12.4029C15.7973 12.8999 15.3944 13.3029 14.8973 13.3029H6.10272C5.60566 13.3029 5.20272 12.8999 5.20272 12.4029ZM6.10272 15.1673C5.60566 15.1673 5.20272 15.5702 5.20272 16.0673C5.20272 16.5644 5.60566 16.9673 6.10272 16.9673H12.6987C13.1957 16.9673 13.5987 16.5644 13.5987 16.0673C13.5987 15.5702 13.1957 15.1673 12.6987 15.1673H6.10272Z" fill="white"/>
</svg>
