<svg width="20" height="21" viewBox="0 0 20 21" fill="none" xmlns="http://www.w3.org/2000/svg">
<path fill-rule="evenodd" clip-rule="evenodd" d="M9.52529 0.561743C9.03506 0.693347 8.53589 1.03748 8.26861 1.42809C8.06873 1.72022 0.194786 17.3194 0.108005 17.5952C-0.0086921 17.9661 -0.0341791 18.4959 0.048006 18.8435C0.238323 19.6482 0.794107 20.2113 1.60138 20.4173C1.91942 20.4984 2.08229 20.5 9.97528 20.5C15.6124 20.5 18.0992 20.4864 18.2728 20.4545C18.6849 20.3789 19.0964 20.1627 19.3949 19.865C19.6788 19.5819 19.8295 19.3271 19.9426 18.9389C20.0392 18.6076 20.0096 17.8749 19.8859 17.5311C19.7779 17.2309 12.0785 2.0008 11.83 1.59561C11.619 1.25156 11.2 0.842204 10.9212 0.707558C10.4859 0.497358 9.96701 0.443141 9.52529 0.561743ZM10.4073 7.46849C10.6996 7.69082 10.6898 7.58426 10.6771 10.3891C10.6659 12.8605 10.664 12.9116 10.5795 13.0245C10.4158 13.2432 10.2823 13.3114 10.0181 13.3114C9.75383 13.3114 9.6203 13.2432 9.4566 13.0245C9.3722 12.9118 9.37019 12.8593 9.35816 10.4433C9.35143 9.08696 9.35686 7.91681 9.37028 7.84297C9.40044 7.67686 9.57517 7.46416 9.74439 7.38756C9.93358 7.30197 10.2372 7.33902 10.4073 7.46849ZM10.2743 14.8506C10.6184 14.9083 10.9595 15.301 11.0059 15.6929C11.0537 16.0966 10.8368 16.5082 10.4777 16.6952C10.3196 16.7775 10.2386 16.7913 9.96922 16.7815C9.69024 16.7714 9.62548 16.7536 9.4688 16.6438C9.36986 16.5744 9.23202 16.4259 9.16254 16.3138C9.05273 16.1367 9.03619 16.071 9.03619 15.8118C9.03619 15.5526 9.05273 15.4868 9.16254 15.3097C9.23202 15.1976 9.36363 15.0535 9.45501 14.9896C9.61366 14.8784 9.92652 14.7871 10.0598 14.813C10.0943 14.8197 10.1908 14.8366 10.2743 14.8506Z" fill="white"/>
</svg>
