<svg width="20" height="21" viewBox="0 0 20 21" fill="none" xmlns="http://www.w3.org/2000/svg">
<path fill-rule="evenodd" clip-rule="evenodd" d="M13.9375 5.6875C13.9375 6.83125 13.4831 7.92815 12.6744 8.7369C11.8656 9.54565 10.7687 10 9.625 10C8.48125 10 7.38435 9.54565 6.5756 8.7369C5.76685 7.92815 5.3125 6.83125 5.3125 5.6875C5.3125 4.54375 5.76685 3.44685 6.5756 2.6381C7.38435 1.82935 8.48125 1.375 9.625 1.375C10.7687 1.375 11.8656 1.82935 12.6744 2.6381C13.4831 3.44685 13.9375 4.54375 13.9375 5.6875ZM1 17.1875C1 18.625 2.4375 18.625 2.4375 18.625H16.8125C16.8125 18.625 18.25 18.625 18.25 17.1875C18.25 15.75 16.8125 11.4375 9.625 11.4375C2.4375 11.4375 1 15.75 1 17.1875Z" fill="white"/>
</svg>
