<svg width="17" height="17" viewBox="0 0 17 17" fill="none" xmlns="http://www.w3.org/2000/svg">
<path fill-rule="evenodd" clip-rule="evenodd" d="M7.70449 0.0199497C6.05031 0.179973 4.41068 0.852506 3.12499 1.89835C2.74681 2.20599 2.14804 2.80945 1.84643 3.18702C1.08379 4.14164 0.458828 5.43291 0.199635 6.58944C0.036866 7.3159 0 7.66905 0 8.50241C0 9.33576 0.036866 9.68891 0.199635 10.4154C0.464485 11.5971 1.10575 12.9069 1.89374 13.8753C2.20141 14.2535 2.80494 14.8522 3.18255 15.1538C4.13727 15.9163 5.42868 16.5412 6.58534 16.8004C7.31188 16.9631 7.66506 17 8.49851 17C9.33195 17 9.68514 16.9631 10.4117 16.8004C11.2813 16.6055 12.4184 16.1197 13.1656 15.6237C14.4616 14.7634 15.457 13.6315 16.1366 12.2452C16.5528 11.396 16.7893 10.6354 16.9382 9.66682C17.0206 9.13086 17.0206 7.87396 16.9382 7.33799C16.7893 6.36937 16.5528 5.60884 16.1366 4.75965C15.6923 3.85347 15.1972 3.16407 14.4823 2.45654C13.7805 1.76188 13.1375 1.3054 12.2417 0.865647C11.4025 0.453711 10.6256 0.21078 9.69632 0.0696868C9.27842 0.00624285 8.13993 -0.0222021 7.70449 0.0199497ZM9.03566 2.44865C9.69981 2.51509 10.255 2.65329 10.8609 2.90294C11.152 3.02291 11.6123 3.26717 11.7592 3.37965L11.8424 3.44336L7.65009 7.63632C5.34434 9.94245 3.4477 11.8293 3.43529 11.8293C3.39543 11.8293 3.12462 11.3567 2.96828 11.0142C1.9173 8.712 2.41545 5.99166 4.216 4.20036C5.49543 2.92753 7.29274 2.27429 9.03566 2.44865ZM13.7305 5.41671C13.9281 5.74241 14.1588 6.25492 14.2827 6.64334C14.9785 8.82545 14.4016 11.1922 12.781 12.8045C11.1901 14.3872 8.86634 14.9716 6.7517 14.3208C6.18164 14.1454 5.52038 13.8415 5.2378 13.6252L5.15462 13.5615L9.34692 9.3685C11.6527 7.06236 13.5493 5.17551 13.5617 5.17551C13.5741 5.17551 13.6501 5.28403 13.7305 5.41671Z" fill="#2965FF"/>
</svg>
