<svg width="18" height="17" viewBox="0 0 18 17" fill="none" xmlns="http://www.w3.org/2000/svg">
<path fill-rule="evenodd" clip-rule="evenodd" d="M8.20449 0.0199497C6.55031 0.179973 4.91068 0.852506 3.62499 1.89835C3.24681 2.20599 2.64804 2.80945 2.34643 3.18702C1.58379 4.14164 0.958828 5.43291 0.699635 6.58944C0.536866 7.3159 0.5 7.66905 0.5 8.50241C0.5 9.33576 0.536866 9.68891 0.699635 10.4154C0.964485 11.5971 1.60575 12.9069 2.39374 13.8753C2.70141 14.2535 3.30494 14.8522 3.68255 15.1538C4.63727 15.9163 5.92868 16.5412 7.08534 16.8004C7.81187 16.9631 8.16506 17 8.99851 17C9.83195 17 10.1851 16.9631 10.9117 16.8004C11.7813 16.6055 12.9184 16.1197 13.6656 15.6237C14.9616 14.7634 15.957 13.6315 16.6366 12.2452C17.0528 11.396 17.2893 10.6354 17.4382 9.66682C17.5206 9.13086 17.5206 7.87396 17.4382 7.33799C17.2893 6.36937 17.0528 5.60884 16.6366 4.75965C16.1923 3.85347 15.6972 3.16407 14.9823 2.45654C14.2805 1.76188 13.6375 1.3054 12.7417 0.865647C11.9025 0.453711 11.1256 0.210781 10.1963 0.0696868C9.77841 0.00624285 8.63993 -0.0222021 8.20449 0.0199497ZM9.53566 2.44865C10.1998 2.51509 10.755 2.65329 11.3609 2.90294C11.652 3.02291 12.1123 3.26717 12.2592 3.37965L12.3424 3.44336L8.15009 7.63632C5.84434 9.94245 3.9477 11.8293 3.93529 11.8293C3.89543 11.8293 3.62462 11.3567 3.46828 11.0142C2.4173 8.712 2.91545 5.99166 4.716 4.20036C5.99543 2.92753 7.79274 2.27429 9.53566 2.44865ZM14.2305 5.41671C14.4281 5.74241 14.6588 6.25492 14.7827 6.64334C15.4785 8.82545 14.9016 11.1922 13.281 12.8045C11.6901 14.3872 9.36633 14.9716 7.2517 14.3208C6.68164 14.1454 6.02038 13.8415 5.7378 13.6252L5.65462 13.5615L9.84692 9.3685C12.1527 7.06236 14.0493 5.17551 14.0617 5.17551C14.0741 5.17551 14.1501 5.28403 14.2305 5.41671Z" fill="white"/>
</svg>
