<svg width="28" height="27" viewBox="0 0 28 27" fill="none" xmlns="http://www.w3.org/2000/svg">
<path fill-rule="evenodd" clip-rule="evenodd" d="M12.7365 0.0316847C10.1093 0.28584 7.50519 1.35398 5.46322 3.01502C4.86259 3.50363 3.9116 4.46207 3.43256 5.06174C2.22131 6.5779 1.22873 8.62874 0.817068 10.4656C0.558552 11.6194 0.5 12.1803 0.5 13.5038C0.5 14.8274 0.558552 15.3883 0.817068 16.5421C1.23771 18.419 2.25619 20.4991 3.5077 22.0373C3.99636 22.6379 4.95491 23.5888 5.55464 24.0678C7.07097 25.2789 9.12202 26.2714 10.9591 26.683C12.113 26.9415 12.6739 27 13.9976 27C15.3213 27 15.8823 26.9415 17.0362 26.683C18.4174 26.3735 20.2234 25.6018 21.4101 24.8141C23.4684 23.4477 25.0493 21.65 26.1286 19.4482C26.7898 18.0995 27.1653 16.8916 27.4018 15.3532C27.5327 14.5019 27.5327 12.5057 27.4018 11.6545C27.1653 10.1161 26.7898 8.90815 26.1286 7.55944C25.4231 6.12021 24.6367 5.02528 23.5013 3.90156C22.3866 2.79828 21.3655 2.07328 19.9426 1.37485C18.6099 0.720599 17.376 0.334769 15.9 0.110679C15.2363 0.00991511 13.4281 -0.0352622 12.7365 0.0316847ZM14.8508 3.88903C15.9056 3.99455 16.7874 4.21405 17.7496 4.61055C18.212 4.80109 18.943 5.18903 19.1764 5.36768L19.3085 5.46887L12.6501 12.1283C8.98806 15.791 5.97576 18.7877 5.95605 18.7877C5.89274 18.7877 5.46264 18.0371 5.21432 17.4932C3.54512 13.8367 4.33631 9.51617 7.196 6.67116C9.22803 4.6496 12.0826 3.61211 14.8508 3.88903ZM22.3073 8.60301C22.6211 9.1203 22.9875 9.93429 23.1842 10.5512C24.2893 14.0169 23.3732 17.7758 20.7993 20.3365C18.2724 22.8502 14.5818 23.7785 11.2233 22.7448C10.3179 22.4662 9.26766 21.9836 8.81885 21.64L8.68674 21.5388L15.3451 14.8794C19.0072 11.2167 22.0195 8.21993 22.0392 8.21993C22.0589 8.21993 22.1795 8.39229 22.3073 8.60301Z" fill="white"/>
</svg>
