<svg width="40" height="40" viewBox="0 0 40 40" fill="none" xmlns="http://www.w3.org/2000/svg">
<path d="M20.0005 6.46492C19.5504 6.46492 19.1855 6.10008 19.1855 5.65V0.814922C19.1855 0.364844 19.5504 0 20.0005 0C20.4505 0 20.8154 0.364844 20.8154 0.814922V5.65C20.8154 6.10008 20.4505 6.46492 20.0005 6.46492Z" fill="url(#paint0_linear_18_5181)"/>
<path d="M26.935 7.95006C26.7265 7.95006 26.518 7.87053 26.3588 7.71139C26.0406 7.39319 26.0406 6.87717 26.3588 6.55889L29.8548 3.06287C30.1731 2.74467 30.6889 2.74467 31.0073 3.06287C31.3255 3.38107 31.3255 3.89709 31.0073 4.21537L27.5112 7.71139C27.3521 7.87045 27.1435 7.95006 26.935 7.95006Z" fill="url(#paint1_linear_18_5181)"/>
<path d="M13.0648 7.95006C12.8562 7.95006 12.6478 7.87053 12.4886 7.71139L8.99256 4.21537C8.67436 3.89717 8.67436 3.38115 8.99256 3.06287C9.31084 2.74467 9.8267 2.74467 10.1451 3.06287L13.6411 6.55889C13.9593 6.87709 13.9593 7.39311 13.6411 7.71139C13.482 7.87045 13.2735 7.95006 13.0648 7.95006Z" fill="url(#paint2_linear_18_5181)"/>
<path d="M39.7502 17.6929L31.8261 9.055C31.82 9.04844 31.8143 9.04312 31.8088 9.03898C31.6568 8.88258 31.4476 8.79102 31.2256 8.79102H8.77387C8.76957 8.79102 8.76637 8.7925 8.76223 8.79273C8.54027 8.79594 8.32645 8.88812 8.17332 9.05508L0.249024 17.6929C-0.0466796 18.0153 -0.0117577 18.5109 0.248164 18.7937L19.3982 39.7365C19.7104 40.0713 20.265 40.104 20.601 39.7365L39.751 18.7937C40.0109 18.5107 40.0461 18.0156 39.7502 17.6929ZM31.5027 11.1135L37.2963 17.4289H28.9902L31.5027 11.1135ZM13.3829 19.0587H26.6164L19.9996 36.8489L13.3829 19.0587ZM30.0243 10.4208L27.5164 16.7245L21.8319 10.4208C21.8318 10.4208 30.0243 10.4208 30.0243 10.4208ZM25.9568 17.4289H14.0425L19.9997 10.8228L25.9568 17.4289ZM18.1676 10.4208L12.483 16.7245L9.97519 10.4208C9.97512 10.4208 18.1676 10.4208 18.1676 10.4208ZM8.4966 11.1135L11.0091 17.4289H2.70301L8.4966 11.1135ZM2.69895 19.0587H11.6439L17.777 35.5483L2.69895 19.0587ZM22.2223 35.5482L28.3554 19.0586H37.3004L22.2223 35.5482Z" fill="url(#paint3_linear_18_5181)"/>
<defs>
<linearGradient id="paint0_linear_18_5181" x1="19.173" y1="-0.0501188" x2="22.0448" y2="0.608055" gradientUnits="userSpaceOnUse">
<stop stop-color="#F9AE3F"/>
<stop offset="0.385417" stop-color="#FFDBA5"/>
<stop offset="1" stop-color="#AD6902"/>
</linearGradient>
<linearGradient id="paint1_linear_18_5181" x1="26.0807" y1="2.78448" x2="31.2854" y2="7.51601" gradientUnits="userSpaceOnUse">
<stop stop-color="#F9AE3F"/>
<stop offset="0.385417" stop-color="#FFDBA5"/>
<stop offset="1" stop-color="#AD6902"/>
</linearGradient>
<linearGradient id="paint2_linear_18_5181" x1="8.71452" y1="2.78448" x2="13.9192" y2="7.51601" gradientUnits="userSpaceOnUse">
<stop stop-color="#F9AE3F"/>
<stop offset="0.385417" stop-color="#FFDBA5"/>
<stop offset="1" stop-color="#AD6902"/>
</linearGradient>
<linearGradient id="paint3_linear_18_5181" x1="-0.266731" y1="8.54907" x2="31.2077" y2="45.1479" gradientUnits="userSpaceOnUse">
<stop stop-color="#F9AE3F"/>
<stop offset="0.385417" stop-color="#FFDBA5"/>
<stop offset="1" stop-color="#AD6902"/>
</linearGradient>
</defs>
</svg>
