<svg width="16" height="15" viewBox="0 0 16 15" fill="none" xmlns="http://www.w3.org/2000/svg">
<path d="M15.6221 3.36902C15.3796 2.80759 15.03 2.29882 14.5928 1.8712C14.1553 1.44231 13.6394 1.10147 13.0733 0.867231C12.4862 0.623371 11.8566 0.49855 11.2209 0.500013C10.3291 0.500013 9.45897 0.744222 8.70283 1.20551C8.52193 1.31585 8.35008 1.43705 8.18727 1.56911C8.02447 1.43705 7.85261 1.31585 7.67172 1.20551C6.91557 0.744222 6.04546 0.500013 5.15364 0.500013C4.51146 0.500013 3.88918 0.623022 3.30127 0.867231C2.73325 1.1024 2.22132 1.44067 1.78174 1.8712C1.34396 2.29834 0.994259 2.80723 0.752441 3.36902C0.500995 3.95332 0.372559 4.57379 0.372559 5.21235C0.372559 5.81473 0.495568 6.44244 0.739778 7.08101C0.944191 7.61465 1.23724 8.16819 1.6117 8.72716C2.20504 9.61174 3.02088 10.5343 4.0339 11.4695C5.71261 13.0198 7.37505 14.0907 7.4456 14.1341L7.87432 14.4091C8.06426 14.5303 8.30847 14.5303 8.49841 14.4091L8.92714 14.1341C8.99769 14.0889 10.6583 13.0198 12.3388 11.4695C13.3519 10.5343 14.1677 9.61174 14.761 8.72716C15.1355 8.16819 15.4304 7.61465 15.633 7.08101C15.8772 6.44244 16.0002 5.81473 16.0002 5.21235C16.002 4.57379 15.8735 3.95332 15.6221 3.36902Z" fill="white"/>
</svg>
