<svg width="25" height="25" viewBox="0 0 25 25" fill="none" xmlns="http://www.w3.org/2000/svg">
<path d="M17.7655 5.0057C15.748 5.0612 14.1842 5.6087 12.6617 6.1382C11.0335 6.7037 9.49675 7.23695 7.3675 7.2587C5.94475 7.2812 4.51975 7.0352 3.1195 6.5507L2.125 6.2072V19.0187L2.6245 19.1964C3.92875 19.6577 5.26225 19.9239 6.58975 19.9869C6.8005 19.9967 7.00675 20.0019 7.20925 20.0019C9.469 20.0019 11.1993 19.4019 12.877 18.8229C14.6455 18.2109 16.3135 17.6327 18.5897 17.7399C19.7963 17.8019 20.9872 18.0405 22.1245 18.4479L23.125 18.8019V5.9852L22.6315 5.8052C21.3553 5.34042 20.0156 5.07334 18.6588 5.0132C18.3612 4.99999 18.0632 4.99749 17.7655 5.0057ZM17.806 6.4952C18.061 6.4877 18.322 6.4877 18.5928 6.4982C18.8733 6.5102 19.1537 6.5357 19.4335 6.5687C19.5476 7.03928 19.8397 7.44732 20.2484 7.70704C20.657 7.96676 21.1505 8.05796 21.625 7.96145V14.7879C21.3793 14.7379 21.1261 14.7378 20.8803 14.7876C20.6346 14.8374 20.4014 14.936 20.1945 15.0777C19.9876 15.2194 19.8114 15.4011 19.6761 15.6123C19.5409 15.8234 19.4494 16.0595 19.4072 16.3067C19.1588 16.2812 18.9097 16.2626 18.6603 16.2512C16.099 16.1387 14.2105 16.7829 12.385 17.4159C10.6143 18.0294 8.9365 18.6092 6.66175 18.5012C6.37844 18.4864 6.09576 18.4614 5.81425 18.4262C5.69917 17.9569 5.40702 17.5503 4.99895 17.2916C4.59089 17.0328 4.09855 16.9419 3.625 17.0379V10.2114C3.87216 10.2617 4.12694 10.2615 4.37401 10.2108C4.62108 10.16 4.85533 10.0598 5.06266 9.91619C5.26999 9.77255 5.44612 9.58845 5.58044 9.37496C5.71476 9.16148 5.8045 8.92302 5.84425 8.67395C6.358 8.7272 6.87175 8.75795 7.384 8.7497C9.75775 8.7257 11.4835 8.12495 13.1537 7.54445C14.6245 7.0322 16.0263 6.5507 17.806 6.4952ZM12.625 8.7497C10.9705 8.7497 9.625 10.4319 9.625 12.4997C9.625 14.5674 10.9705 16.2497 12.625 16.2497C14.2795 16.2497 15.625 14.5674 15.625 12.4997C15.625 10.4319 14.2795 8.7497 12.625 8.7497ZM12.625 10.2497C13.438 10.2497 14.125 11.2802 14.125 12.4997C14.125 13.7192 13.438 14.7497 12.625 14.7497C11.812 14.7497 11.125 13.7192 11.125 12.4997C11.125 11.2802 11.812 10.2497 12.625 10.2497ZM18.25 10.2497C17.9516 10.2497 17.6655 10.3682 17.4545 10.5792C17.2435 10.7902 17.125 11.0763 17.125 11.3747C17.125 11.6731 17.2435 11.9592 17.4545 12.1702C17.6655 12.3812 17.9516 12.4997 18.25 12.4997C18.5484 12.4997 18.8345 12.3812 19.0455 12.1702C19.2565 11.9592 19.375 11.6731 19.375 11.3747C19.375 11.0763 19.2565 10.7902 19.0455 10.5792C18.8345 10.3682 18.5484 10.2497 18.25 10.2497ZM7 12.4997C6.70163 12.4997 6.41548 12.6182 6.2045 12.8292C5.99353 13.0402 5.875 13.3263 5.875 13.6247C5.875 13.9231 5.99353 14.2092 6.2045 14.4202C6.41548 14.6312 6.70163 14.7497 7 14.7497C7.29837 14.7497 7.58452 14.6312 7.7955 14.4202C8.00647 14.2092 8.125 13.9231 8.125 13.6247C8.125 13.3263 8.00647 13.0402 7.7955 12.8292C7.58452 12.6182 7.29837 12.4997 7 12.4997Z" fill="white"/>
</svg>
