<svg width="23" height="23" viewBox="0 0 23 23" fill="none" xmlns="http://www.w3.org/2000/svg">
<path fill-rule="evenodd" clip-rule="evenodd" d="M9.12198 0.0485111C7.51701 0.213015 5.91842 0.843808 4.53995 1.85662C4.02914 2.23194 3.09072 3.158 2.7096 3.66293C1.52591 5.23106 0.893099 7.00947 0.825043 8.95935C0.784523 10.1212 0.92697 11.1216 1.28742 12.206C1.73718 13.5591 2.50984 14.8058 3.53284 15.8288C5.03261 17.3285 6.9279 18.2497 9.04516 18.508C9.61513 18.5776 11.072 18.5399 11.6151 18.4415C12.8781 18.2128 14.0018 17.7837 15.0182 17.1421L15.4114 16.8939L18.1674 19.7565C19.6831 21.3308 20.9862 22.672 21.0632 22.7368C21.5456 23.1427 22.3848 23.0308 22.753 22.5116C22.938 22.2507 22.9953 22.0799 22.9994 21.7772C23.006 21.2895 22.9742 21.2511 20.0621 18.2287C18.6053 16.7166 17.3671 15.4246 17.3106 15.3574L17.2078 15.2353L17.4483 14.9274C19.0788 12.8405 19.7106 10.0952 19.1786 7.40954C18.9127 6.06759 18.2168 4.59227 17.3292 3.48926C15.3415 1.01891 12.2597 -0.273085 9.12198 0.0485111ZM10.9648 2.4879C13.8786 2.87589 16.1864 5.00896 16.8048 7.88576C16.9276 8.45739 16.9735 9.6007 16.8954 10.1459C16.6717 11.7088 16.0136 13.0438 14.9357 14.1217C13.8965 15.161 12.6074 15.8202 11.1451 16.0599C10.6545 16.1404 9.5769 16.1407 9.05082 16.0606C7.15521 15.772 5.4382 14.6717 4.3833 13.0697C4.00632 12.4972 3.80359 12.0826 3.59506 11.4579C3.3682 10.7784 3.27796 10.2695 3.24903 9.50596C3.10384 5.67776 6.1919 2.46091 10.0429 2.42874C10.2899 2.42668 10.7048 2.45327 10.9648 2.4879Z" fill="white"/>
</svg>
