<svg width="27" height="27" viewBox="0 0 27 27" fill="none" xmlns="http://www.w3.org/2000/svg">
<path fill-rule="evenodd" clip-rule="evenodd" d="M12.2352 0.0316847C9.60829 0.28584 7.00444 1.35398 4.96269 3.01502C4.36212 3.50363 3.41123 4.46207 2.93225 5.06174C1.72112 6.5779 0.728649 8.62874 0.317034 10.4656C0.0585456 11.6194 0 12.1803 0 13.5038C0 14.8274 0.0585456 15.3883 0.317034 16.5421C0.737632 18.419 1.756 20.4991 3.00738 22.0373C3.49598 22.6379 4.45443 23.5888 5.0541 24.0678C6.57026 25.2789 8.6211 26.2714 10.4579 26.683C11.6117 26.9415 12.1726 27 13.4962 27C14.8197 27 15.3806 26.9415 16.5344 26.683C17.9155 26.3735 19.7212 25.6018 20.9079 24.8141C22.966 23.4477 24.5467 21.65 25.6259 19.4482C26.287 18.0995 26.6624 16.8916 26.8989 15.3532C27.0298 14.5019 27.0298 12.5057 26.8989 11.6545C26.6624 10.1161 26.287 8.90815 25.6259 7.55944C24.9204 6.12021 24.1341 5.02528 22.9988 3.90156C21.8843 2.79828 20.8632 2.07328 19.4406 1.37485C18.1079 0.720599 16.8742 0.334769 15.3984 0.110679C14.7347 0.00991511 12.9267 -0.0352622 12.2352 0.0316847ZM14.3492 3.88903C15.4039 3.99455 16.2857 4.21405 17.2477 4.61055C17.7101 4.80109 18.4411 5.18903 18.6744 5.36768L18.8065 5.46887L12.1488 12.1283C8.48715 15.791 5.47517 18.7877 5.45546 18.7877C5.39216 18.7877 4.96211 18.0371 4.71382 17.4932C3.04479 13.8367 3.8359 9.51617 6.69528 6.67116C8.72709 4.6496 11.5813 3.61211 14.3492 3.88903ZM21.805 8.60301C22.1188 9.1203 22.4851 9.93429 22.6818 10.5512C23.7868 14.0169 22.8707 17.7758 20.2971 20.3365C17.7705 22.8502 14.0803 23.7785 10.7221 22.7448C9.81684 22.4662 8.76672 21.9836 8.31796 21.64L8.18586 21.5388L14.8435 14.8794C18.5052 11.2167 21.5172 8.21993 21.5369 8.21993C21.5566 8.21993 21.6772 8.39229 21.805 8.60301Z" fill="white"/>
</svg>
