<svg width="26" height="26" viewBox="0 0 26 26" fill="none" xmlns="http://www.w3.org/2000/svg"><path fill-rule="evenodd" clip-rule="evenodd" d="M12.303.08C11.67.251 11.025.7 10.68 1.207 10.422 1.587.252 21.865.14 22.224c-.151.482-.184 1.17-.078 1.622.246 1.047.964 1.779 2.006 2.046.411.106.622.108 10.817.108 7.281 0 10.493-.018 10.717-.06a2.827 2.827 0 0 0 1.45-.766c.366-.368.561-.699.707-1.203.125-.431.087-1.384-.073-1.83-.14-.39-10.085-20.19-10.406-20.717-.272-.447-.813-.98-1.173-1.154-.563-.273-1.233-.344-1.803-.19zm1.14 8.979c.377.29.365.15.348 3.797-.014 3.213-.017 3.28-.126 3.426-.211.284-.384.373-.725.373-.341 0-.514-.089-.725-.373-.11-.147-.112-.215-.127-3.356-.01-1.763-.002-3.284.015-3.38.04-.216.265-.493.483-.592.245-.111.637-.063.857.105zm-.172 9.597c.444.075.885.585.945 1.095a1.321 1.321 0 0 1-.682 1.303c-.205.107-.31.125-.657.112-.36-.013-.444-.036-.647-.18a1.741 1.741 0 0 1-.395-.428c-.142-.23-.163-.316-.163-.653s.021-.422.163-.652c.09-.146.26-.333.378-.417.205-.144.609-.263.781-.23.045.01.17.032.277.05z" fill="#fff"/></svg>