<svg width="24" height="25" viewBox="0 0 24 25" fill="none" xmlns="http://www.w3.org/2000/svg"><path fill-rule="evenodd" clip-rule="evenodd" d="M.755.579C.478.676.175.986.078 1.27.007 1.481.001 2.383.001 12.5c0 12.344-.033 11.268.35 11.65.376.375-.098.35 6.71.35s6.334.025 6.71-.35a1.153 1.153 0 0 0 0-1.643c-.374-.373.018-.35-6.038-.35H2.346V2.842h5.387c6.056 0 5.664.023 6.038-.35a1.153 1.153 0 0 0 0-1.643c-.376-.376.102-.351-6.73-.347C1.66.505.939.514.755.579zm15.759 4.864c-.64.206-.976.96-.701 1.571.071.16.597.713 2.145 2.262l2.05 2.051h-5.703c-6.41 0-5.98-.024-6.354.35a1.153 1.153 0 0 0 0 1.643c.374.375-.056.35 6.354.35h5.703l-2.047 2.052c-1.127 1.128-2.087 2.124-2.133 2.215-.126.24-.117.76.016 1.012.117.223.385.472.606.564.223.093.705.08.936-.025.285-.129 6.354-6.164 6.502-6.465.15-.303.15-.745 0-1.048-.14-.283-6.194-6.314-6.49-6.465a1.263 1.263 0 0 0-.884-.067z" fill="#2B66FB"/></svg>