<svg width="21" height="28" viewBox="0 0 21 28" fill="none" xmlns="http://www.w3.org/2000/svg"><path fill-rule="evenodd" clip-rule="evenodd" d="M12.792 0a.853.853 0 0 1 .853.853.853.853 0 0 0 .853.853.853.853 0 0 1 .852.852v.853a.853.853 0 0 1-.852.853H5.97a.853.853 0 0 1-.853-.853v-.853a.853.853 0 0 1 .853-.852.853.853 0 0 0 .852-.853A.853.853 0 0 1 7.675 0h5.117zM2.558 1.706h.998a2.555 2.555 0 0 0-.145.852v.853A2.558 2.558 0 0 0 5.97 5.97h8.528a2.558 2.558 0 0 0 2.558-2.559v-.853c0-.298-.051-.586-.145-.852h.998a2.558 2.558 0 0 1 2.558 2.558v20.467a2.558 2.558 0 0 1-2.558 2.558H2.559A2.558 2.558 0 0 1 0 24.732V4.264a2.558 2.558 0 0 1 2.558-2.558zm1.676 8.635a.9.9 0 0 0 0 1.8h12a.9.9 0 0 0 0-1.8h-12zm-.9 5.9a.9.9 0 0 1 .9-.9h12a.9.9 0 0 1 0 1.8h-12a.9.9 0 0 1-.9-.9zm.9 4.1a.9.9 0 0 0 0 1.8h9a.9.9 0 0 0 0-1.8h-9z" fill="#fff"/></svg>