<svg width="24" height="24" viewBox="0 0 24 24" fill="none" xmlns="http://www.w3.org/2000/svg">
<path fill-rule="evenodd" clip-rule="evenodd" d="M16.5 9.50049C16.5 10.694 16.0259 11.8386 15.182 12.6825C14.3381 13.5264 13.1935 14.0005 12 14.0005C10.8065 14.0005 9.66193 13.5264 8.81802 12.6825C7.97411 11.8386 7.5 10.694 7.5 9.50049C7.5 8.30701 7.97411 7.16242 8.81802 6.31851C9.66193 5.47459 10.8065 5.00049 12 5.00049C13.1935 5.00049 14.3381 5.47459 15.182 6.31851C16.0259 7.16242 16.5 8.30701 16.5 9.50049ZM3 21.5005C3 23.0005 4.5 23.0005 4.5 23.0005H19.5C19.5 23.0005 21 23.0005 21 21.5005C21 20.0005 19.5 15.5005 12 15.5005C4.5 15.5005 3 20.0005 3 21.5005Z" fill="white"/>
</svg>
