<svg width="23" height="23" viewBox="0 0 23 23" fill="none" xmlns="http://www.w3.org/2000/svg">
<path fill-rule="evenodd" clip-rule="evenodd" d="M8.30362 0.0485111C6.69865 0.213015 5.10006 0.843808 3.72159 1.85662C3.21078 2.23194 2.27236 3.158 1.89125 3.66293C0.707554 5.23106 0.0747399 7.00947 0.00668321 8.95935C-0.0338363 10.1212 0.108611 11.1216 0.469064 12.206C0.918822 13.5591 1.69148 14.8058 2.71448 15.8288C4.21425 17.3285 6.10954 18.2497 8.2268 18.508C8.79677 18.5776 10.2537 18.5399 10.7968 18.4415C12.0597 18.2128 13.1834 17.7837 14.1998 17.1421L14.5931 16.8939L17.349 19.7565C18.8648 21.3308 20.1679 22.672 20.2448 22.7368C20.7273 23.1427 21.5664 23.0308 21.9347 22.5116C22.1197 22.2507 22.177 22.0799 22.1811 21.7772C22.1876 21.2895 22.1558 21.2511 19.2437 18.2287C17.7869 16.7166 16.5487 15.4246 16.4922 15.3574L16.3894 15.2353L16.63 14.9274C18.2604 12.8405 18.8922 10.0952 18.3602 7.40954C18.0944 6.06759 17.3984 4.59227 16.5109 3.48926C14.5231 1.01891 11.4413 -0.273085 8.30362 0.0485111ZM10.1464 2.4879C13.0603 2.87589 15.3681 5.00896 15.9864 7.88576C16.1093 8.45739 16.1552 9.6007 16.0771 10.1459C15.8533 11.7088 15.1953 13.0438 14.1174 14.1217C13.0781 15.161 11.789 15.8202 10.3267 16.0599C9.83613 16.1404 8.75854 16.1407 8.23246 16.0606C6.33685 15.772 4.61985 14.6717 3.56494 13.0697C3.18796 12.4972 2.98523 12.0826 2.7767 11.4579C2.54985 10.7784 2.4596 10.2695 2.43067 9.50596C2.28548 5.67776 5.37354 2.46091 9.22452 2.42874C9.47159 2.42668 9.88644 2.45327 10.1464 2.4879Z" fill="white"/>
</svg>
