<svg width="26" height="26" viewBox="0 0 26 26" fill="none" xmlns="http://www.w3.org/2000/svg">
<path fill-rule="evenodd" clip-rule="evenodd" d="M12.427 0.0761388C12.0816 0.1916 11.7539 0.357678 11.1558 0.720121C10.0097 1.41472 10.0092 1.41487 8.41013 1.45802C7.66905 1.47799 6.98232 1.51981 6.88404 1.55097C6.55359 1.6557 6.15297 1.93745 5.9205 2.22859C5.79364 2.38745 5.50865 2.84483 5.28722 3.24498C4.60436 4.47892 4.45268 4.63138 3.24926 5.2933C2.39591 5.76267 2.05804 6.00782 1.82796 6.32468C1.51328 6.75817 1.48241 6.92658 1.44469 8.41925C1.40594 9.95054 1.40386 9.96014 0.927074 10.783C0.781502 11.0342 0.563322 11.4112 0.442258 11.6209C0.0829806 12.2428 0 12.5003 0 12.993C0 13.499 0.0821671 13.7436 0.48685 14.4419C1.48013 16.1561 1.40264 15.9033 1.44469 17.5667C1.48241 19.0594 1.51328 19.2278 1.82796 19.6613C2.05728 19.9771 2.39368 20.221 3.24926 20.692C3.64077 20.9074 4.07256 21.1672 4.20872 21.2691C4.54766 21.5228 4.85798 21.9468 5.30852 22.7722C5.51826 23.1564 5.79364 23.6002 5.9205 23.7585C6.15307 24.0486 6.55466 24.3306 6.88404 24.435C6.98232 24.4662 7.66905 24.5076 8.41013 24.5271C9.94186 24.5674 9.95259 24.5698 10.7751 25.0459C11.0264 25.1914 11.4037 25.4094 11.6134 25.5304C12.8177 26.2253 13.3093 26.1763 14.9269 25.1998C15.2465 25.0069 15.6671 24.784 15.8615 24.7046C16.21 24.5621 16.2339 24.5596 17.5624 24.5272C19.0563 24.4909 19.2238 24.4604 19.6581 24.1454C19.9739 23.9163 20.2191 23.5795 20.689 22.7295C21.3598 21.5159 21.5071 21.3692 22.7394 20.688C23.1397 20.4667 23.5974 20.1818 23.7563 20.055C24.0476 19.8227 24.3295 19.4223 24.4343 19.092C24.4656 18.9933 24.5062 18.3113 24.5251 17.5667C24.5589 16.2407 24.5616 16.2145 24.7042 15.8643C24.7838 15.6686 25.0068 15.2483 25.1997 14.9304C26.1919 13.2941 26.2311 12.8304 25.4857 11.544C24.4929 9.83065 24.5702 10.0827 24.5264 8.41925C24.5069 7.67856 24.4655 6.99219 24.4343 6.89396C24.3297 6.56455 24.0476 6.16333 23.7571 5.93093C23.5986 5.80414 23.141 5.51919 22.7402 5.29767C21.5059 4.61552 21.3599 4.47023 20.689 3.25646C20.2191 2.40646 19.9739 2.06963 19.6581 1.84053C19.2244 1.52601 19.0558 1.49517 17.5624 1.45746C16.0504 1.41924 16.0146 1.41187 15.2743 0.984687C15.0646 0.863686 14.6873 0.64562 14.436 0.500124C14.1846 0.354629 13.8528 0.187382 13.6987 0.128432C13.3086 -0.0207228 12.7813 -0.0423719 12.427 0.0761388ZM13.858 3.28782C18.1634 3.71409 21.63 6.79237 22.523 10.9821C23.206 14.1866 22.2051 17.5491 19.8749 19.878C18.5387 21.2135 16.8487 22.1308 14.9982 22.5248C11.8029 23.2051 8.45635 22.2154 6.12206 19.8997C4.769 18.5575 3.8469 16.8682 3.44949 15.0039C2.76917 11.812 3.75421 8.47317 6.06353 6.14325C8.108 4.0805 11.0348 3.00831 13.858 3.28782ZM12.1727 4.81377C9.67233 5.08642 7.43943 6.44812 6.09384 8.52089C3.93146 11.8518 4.46789 16.2664 7.36407 18.9746C10.3815 21.7963 14.949 21.9585 18.1745 19.3585C19.5823 18.2237 20.6515 16.4771 21.0185 14.7126C21.5331 12.238 20.9385 9.76977 19.3551 7.80749C18.0932 6.24357 16.1505 5.13886 14.1805 4.86505C13.5927 4.78328 12.6685 4.7597 12.1727 4.81377ZM17.5509 10.8971C17.5432 10.9324 16.1883 12.2542 14.54 13.8347L11.5431 16.7081L9.95117 15.1176L8.35928 13.5272L8.89306 12.9936L9.42689 12.4601L10.4902 13.522L11.5535 14.5838L14.0368 12.192L16.5201 9.80011L17.0424 10.3166C17.3297 10.6007 17.5585 10.862 17.5509 10.8971Z" fill="white"/>
</svg>
