<svg width="17" height="14" viewBox="0 0 17 14" fill="none" xmlns="http://www.w3.org/2000/svg">
<path d="M14.1125 11.9504H3.3875C3.16062 11.9504 2.975 12.136 2.975 12.3629V13.1879C2.975 13.4148 3.16062 13.6004 3.3875 13.6004H14.1125C14.3394 13.6004 14.525 13.4148 14.525 13.1879V12.3629C14.525 12.136 14.3394 11.9504 14.1125 11.9504ZM15.7625 3.70039C15.0793 3.70039 14.525 4.25469 14.525 4.93789C14.525 5.12094 14.5663 5.29109 14.6384 5.44836L12.7719 6.56727C12.3748 6.80445 11.8618 6.67039 11.6323 6.2682L9.53117 2.5918C9.80703 2.36492 9.9875 2.02461 9.9875 1.63789C9.9875 0.954687 9.4332 0.400391 8.75 0.400391C8.0668 0.400391 7.5125 0.954687 7.5125 1.63789C7.5125 2.02461 7.69297 2.36492 7.96883 2.5918L5.86766 6.2682C5.6382 6.67039 5.12258 6.80445 4.72813 6.56727L2.86414 5.44836C2.93375 5.29367 2.97758 5.12094 2.97758 4.93789C2.97758 4.25469 2.42328 3.70039 1.74008 3.70039C1.05687 3.70039 0.5 4.25469 0.5 4.93789C0.5 5.62109 1.0543 6.17539 1.7375 6.17539C1.80453 6.17539 1.87156 6.16508 1.93602 6.15477L3.8 11.1254H13.7L15.564 6.15477C15.6284 6.16508 15.6955 6.17539 15.7625 6.17539C16.4457 6.17539 17 5.62109 17 4.93789C17 4.25469 16.4457 3.70039 15.7625 3.70039Z" fill="white" fill-opacity="0.33"/>
</svg>
