<svg width="11" height="15" viewBox="0 0 11 15" fill="none" xmlns="http://www.w3.org/2000/svg">
<path fill-rule="evenodd" clip-rule="evenodd" d="M5.10175 0.00721872C4.47746 0.0811981 4.09136 0.171229 3.65168 0.345335C1.49096 1.20092 0.210482 3.4255 0.555993 5.72358C0.775965 7.18674 1.63637 8.472 2.91491 9.24727C3.42223 9.55493 4.09773 9.80457 4.6564 9.89093L4.88166 9.92574L4.88943 10.7682L4.89724 11.6106L4.24384 11.6113C3.67143 11.6118 3.57591 11.6186 3.47309 11.6661C3.10017 11.8382 3.02493 12.2972 3.3197 12.6018C3.46956 12.7567 3.61837 12.7844 4.29854 12.7844H4.89325L4.90211 13.7015C4.91092 14.6081 4.9118 14.6198 4.98064 14.7305C5.01894 14.7921 5.10383 14.878 5.16924 14.9213C5.26834 14.9869 5.32078 15 5.48324 15C5.64569 15 5.69813 14.9869 5.79723 14.9213C5.86264 14.878 5.94754 14.7921 5.98583 14.7305C6.05468 14.6198 6.05556 14.6081 6.06436 13.7015L6.07322 12.7844H6.66793C7.3481 12.7844 7.49691 12.7567 7.64677 12.6018C7.94155 12.2972 7.8663 11.8382 7.49338 11.6661C7.39056 11.6186 7.29504 11.6118 6.72263 11.6113L6.06923 11.6106L6.07704 10.7682L6.08481 9.92574L6.31007 9.89093C6.86874 9.80457 7.54424 9.55493 8.05156 9.24727C10.9385 7.49671 11.3025 3.4704 8.77571 1.23737C8.07777 0.620593 7.22174 0.217389 6.27556 0.0598054C6.02287 0.0177243 5.29009 -0.015113 5.10175 0.00721872ZM6.2711 1.25031C7.02636 1.41403 7.61317 1.73615 8.16944 2.29239C8.92655 3.04953 9.28233 3.90876 9.28174 4.9786C9.28148 5.45332 9.24072 5.73685 9.11726 6.12306C8.66279 7.54458 7.46231 8.55074 5.9821 8.75069C5.59393 8.80313 5.37255 8.80313 4.98437 8.75069C3.50416 8.55074 2.30368 7.54458 1.84921 6.12306C1.72575 5.73685 1.68499 5.45332 1.68473 4.9786C1.68443 4.4723 1.732 4.16512 1.8743 3.75452C2.07713 3.16911 2.34538 2.74407 2.79703 2.29239C3.42616 1.66329 4.12129 1.31907 5.01618 1.1935C5.30664 1.15274 5.95669 1.18217 6.2711 1.25031Z" fill="#2965FF"/>
</svg>
