<svg width="22" height="34" viewBox="0 0 22 34" fill="none" xmlns="http://www.w3.org/2000/svg">
<path fill-rule="evenodd" clip-rule="evenodd" d="M7.66958 0.512031C6.62909 0.63533 5.9856 0.785382 5.2528 1.07556C1.6516 2.50154 -0.482531 6.20917 0.0933211 10.0393C0.459941 12.4779 1.89395 14.62 4.02485 15.9121C4.87039 16.4249 5.99622 16.841 6.92734 16.9849L7.30276 17.0429L7.31572 18.447L7.32873 19.851L6.23973 19.8521C5.28572 19.853 5.12652 19.8644 4.95514 19.9435C4.33361 20.2303 4.20821 20.9954 4.6995 21.503C4.94927 21.7611 5.19729 21.8074 6.3309 21.8074H7.32208L7.33685 23.3358C7.35153 24.8469 7.35299 24.8663 7.46773 25.0509C7.53156 25.1536 7.67305 25.2966 7.78207 25.3688C7.94723 25.4781 8.03463 25.5 8.30539 25.5C8.57615 25.5 8.66355 25.4781 8.82872 25.3688C8.93773 25.2966 9.07923 25.1536 9.14305 25.0509C9.25779 24.8663 9.25926 24.8469 9.27393 23.3358L9.2887 21.8074H10.2799C11.4135 21.8074 11.6615 21.7611 11.9113 21.503C12.4026 20.9954 12.2772 20.2303 11.6556 19.9435C11.4843 19.8644 11.3251 19.853 10.3711 19.8521L9.28205 19.851L9.29506 18.447L9.30802 17.0429L9.68345 16.9849C10.6146 16.841 11.7404 16.4249 12.5859 15.9121C17.3975 12.9945 18.0041 6.284 13.7929 2.56229C12.6296 1.53432 11.2029 0.862316 9.62593 0.599676C9.20478 0.529541 7.98348 0.474812 7.66958 0.512031ZM9.61849 2.58385C10.8773 2.85672 11.8553 3.39359 12.7824 4.32065C14.0442 5.58255 14.6372 7.0146 14.6362 8.79766C14.6358 9.58886 14.5679 10.0614 14.3621 10.7051C13.6047 13.0743 11.6038 14.7512 9.13684 15.0845C8.48988 15.1719 8.12091 15.1719 7.47394 15.0845C5.00694 14.7512 3.00613 13.0743 2.24868 10.7051C2.04292 10.0614 1.97499 9.58886 1.97455 8.79766C1.97406 7.95384 2.05334 7.44186 2.2905 6.75753C2.62856 5.78185 3.07563 5.07346 3.82838 4.32065C4.87694 3.27215 6.03549 2.69845 7.52696 2.48917C8.01106 2.42123 9.09449 2.47029 9.61849 2.58385Z" fill="#2965FF"/>
</svg>
