<svg width="14" height="18" viewBox="0 0 14 18" fill="none" xmlns="http://www.w3.org/2000/svg">
<path fill-rule="evenodd" clip-rule="evenodd" d="M8.98701 0.158259C8.88567 0.0569273 8.74824 0 8.60494 0H5.36296C5.21966 0 5.08222 0.0569273 4.98089 0.158259C4.87956 0.25959 4.82263 0.397025 4.82263 0.540329C4.82263 0.683633 4.76571 0.821067 4.66438 0.922399C4.56305 1.02373 4.42561 1.08066 4.28231 1.08066C4.139 1.08066 4.00157 1.13758 3.90024 1.23892C3.79891 1.34025 3.74198 1.47768 3.74198 1.62099V2.16131C3.74198 2.30462 3.79891 2.44205 3.90024 2.54338C4.00157 2.64472 4.139 2.70164 4.28231 2.70164H9.68559C9.8289 2.70164 9.96633 2.64472 10.0677 2.54338C10.169 2.44205 10.2259 2.30462 10.2259 2.16131V1.62099C10.2259 1.47768 10.169 1.34025 10.0677 1.23892C9.96633 1.13758 9.8289 1.08066 9.68559 1.08066C9.54229 1.08066 9.40485 1.02373 9.30352 0.922399C9.20219 0.821067 9.14526 0.683633 9.14526 0.540329C9.14526 0.397025 9.08834 0.25959 8.98701 0.158259ZM2.75317 1.08014H2.12099C1.69107 1.08014 1.27877 1.25092 0.974775 1.55492C0.670781 1.85891 0.499999 2.27121 0.499999 2.70113V15.669C0.499999 16.0989 0.670781 16.5112 0.974775 16.8152C1.27877 17.1192 1.69107 17.29 2.12099 17.29H11.8469C12.2768 17.29 12.6891 17.1192 12.9931 16.8152C13.2971 16.5112 13.4679 16.0989 13.4679 15.669V2.70113C13.4679 2.27121 13.2971 1.85891 12.9931 1.55492C12.6891 1.25092 12.2768 1.08014 11.8469 1.08014H11.2147C11.2742 1.24872 11.3066 1.43135 11.3066 1.62047V2.1608C11.3066 2.59071 11.1358 3.00301 10.8318 3.30701C10.5278 3.611 10.1155 3.78178 9.68559 3.78178H4.2823C3.85239 3.78178 3.44008 3.611 3.13609 3.30701C2.8321 3.00301 2.66131 2.59071 2.66131 2.1608V1.62047C2.661 1.43645 2.69206 1.25372 2.75317 1.08014ZM2.28237 7.12238C2.28237 6.62532 2.68532 6.22238 3.18237 6.22238H10.7855C11.2826 6.22238 11.6855 6.62532 11.6855 7.12238C11.6855 7.61943 11.2826 8.02238 10.7855 8.02238H3.18237C2.68532 8.02238 2.28237 7.61943 2.28237 7.12238ZM2.28237 10.2904C2.28237 9.7933 2.68532 9.39036 3.18237 9.39036H10.7855C11.2826 9.39036 11.6855 9.7933 11.6855 10.2904C11.6855 10.7874 11.2826 11.1904 10.7855 11.1904H3.18237C2.68532 11.1904 2.28237 10.7874 2.28237 10.2904ZM2.28237 13.4583C2.28237 12.9613 2.68532 12.5583 3.18237 12.5583H8.88473C9.38179 12.5583 9.78473 12.9613 9.78473 13.4583C9.78473 13.9554 9.38179 14.3583 8.88473 14.3583H3.18237C2.68532 14.3583 2.28237 13.9554 2.28237 13.4583Z" fill="white" fill-opacity="0.33"/>
</svg>
