<svg width="34" height="34" viewBox="0 0 34 34" fill="none" xmlns="http://www.w3.org/2000/svg">
<path fill-rule="evenodd" clip-rule="evenodd" d="M18.3341 0.539582C18.1025 0.607336 17.802 0.927808 17.7343 1.17906C17.6172 1.61395 17.7912 2.07106 18.1615 2.30127C18.3477 2.41702 18.3541 2.41746 20.2441 2.44182L22.1399 2.46628L18.036 6.5698L13.9322 10.6734L13.4061 10.3215C12.5589 9.75505 11.7924 9.4087 10.8541 9.16845C8.00299 8.43838 5.0051 9.26213 2.91809 11.3491C1.63459 12.6326 0.852172 14.1815 0.560171 16.017C0.479943 16.5212 0.479943 17.9099 0.560171 18.4141C0.852172 20.2495 1.63459 21.7984 2.91809 23.0819C4.2016 24.3654 5.75049 25.1478 7.58595 25.4398C8.09011 25.5201 9.47884 25.5201 9.98301 25.4398C12.4858 25.0417 14.5726 23.6549 15.8931 21.5123C16.8285 19.9946 17.2548 18.0324 17.0338 16.2616C16.8571 14.8458 16.453 13.7522 15.6785 12.5939L15.3266 12.0678L19.4302 7.96396L23.5337 3.86009L23.5582 5.75959L23.5826 7.65909L23.7139 7.85731C23.9167 8.16365 24.1549 8.28771 24.5401 8.28771C24.8071 8.28771 24.8954 8.2654 25.06 8.15645C25.1691 8.0843 25.3106 7.94121 25.3744 7.83848L25.4905 7.65175L25.5041 4.47531L25.5178 1.29886L25.3934 1.04477C25.3114 0.877078 25.1987 0.742941 25.0618 0.650141L24.8546 0.509497L21.6748 0.500985C19.7542 0.495848 18.4313 0.511111 18.3341 0.539582ZM9.98159 10.9787C10.9228 11.1751 11.7837 11.5538 12.5599 12.1126C13.5491 12.8249 14.4486 14.0711 14.8175 15.2404C15.0541 15.9903 15.1168 16.4046 15.1168 17.2155C15.1168 18.3253 14.9199 19.1542 14.4332 20.0921C13.5054 21.8801 11.9735 23.0319 9.95243 23.4609C9.38673 23.581 8.18223 23.581 7.61652 23.4609C7.01599 23.3334 6.46378 23.149 6.02052 22.9281C4.18262 22.0116 2.97455 20.4347 2.53911 18.3835C2.41902 17.8178 2.41902 16.6133 2.53911 16.0476C2.81164 14.7637 3.36502 13.6974 4.2193 12.8098C5.20327 11.7875 6.55105 11.1066 7.98391 10.9081C8.44997 10.8435 9.51397 10.8811 9.98159 10.9787Z" fill="#2965FF"/>
</svg>
