<svg width="16" height="15" viewBox="0 0 16 15" fill="none" xmlns="http://www.w3.org/2000/svg">
<path fill-rule="evenodd" clip-rule="evenodd" d="M11.2005 0.0237494C11.0615 0.0644016 10.8812 0.256685 10.8406 0.407435C10.7703 0.668372 10.8747 0.942635 11.0969 1.08076C11.2086 1.15021 11.2124 1.15047 12.3464 1.16509L13.4839 1.17977L11.0216 3.64188L8.55934 6.10402L8.24366 5.89292C7.73532 5.55303 7.27547 5.34522 6.71247 5.20107C5.00179 4.76303 3.20306 5.25728 1.95086 6.50948C1.18075 7.27959 0.711303 8.20892 0.536103 9.3102C0.487966 9.6127 0.487966 10.4459 0.536103 10.7484C0.711303 11.8497 1.18075 12.779 1.95086 13.5491C2.72096 14.3192 3.65029 14.7887 4.75157 14.9639C5.05407 15.012 5.88731 15.012 6.1898 14.9639C7.69147 14.725 8.94359 13.8929 9.73585 12.6074C10.2971 11.6968 10.5529 10.5195 10.4203 9.45695C10.3143 8.60746 10.0718 7.95133 9.60708 7.25634L9.39598 6.94066L11.8581 4.47837L14.3202 2.01606L14.3349 3.15576L14.3496 4.29545L14.4283 4.41439C14.55 4.59819 14.6929 4.67262 14.9241 4.67262C15.0843 4.67262 15.1372 4.65924 15.236 4.59387C15.3014 4.55058 15.3864 4.46473 15.4247 4.40309L15.4943 4.29105L15.5025 2.38518L15.5107 0.479318L15.4361 0.326865C15.3868 0.226247 15.3192 0.145765 15.2371 0.0900844L15.1127 0.00569813L13.2049 0.00059093C12.0525 -0.002491 11.2588 0.00666674 11.2005 0.0237494ZM6.18895 6.2872C6.75365 6.40508 7.27024 6.63226 7.73594 6.96758C8.32949 7.39494 8.86918 8.14264 9.09052 8.84424C9.23244 9.29417 9.27009 9.54278 9.27009 10.0293C9.27009 10.6952 9.15192 11.1925 8.8599 11.7553C8.30325 12.828 7.3841 13.5191 6.17146 13.7765C5.83204 13.8486 5.10934 13.8486 4.76991 13.7765C4.40959 13.7 4.07827 13.5894 3.81231 13.4568C2.70957 12.907 1.98473 11.9608 1.72347 10.7301C1.65141 10.3907 1.65141 9.66796 1.72347 9.32854C1.88699 8.5582 2.21901 7.91843 2.73158 7.3859C3.32196 6.7725 4.13063 6.36399 4.99035 6.24485C5.26998 6.20608 5.90838 6.22865 6.18895 6.2872Z" fill="#2965FF"/>
</svg>
