<svg width="19" height="16" viewBox="0 0 19 16" fill="none" xmlns="http://www.w3.org/2000/svg">
<path fill-rule="evenodd" clip-rule="evenodd" d="M13.3267 1.02459C14.2547 0.070952 16.5758 1.74066 13.3267 3.88663C10.0777 1.74066 12.3987 0.070952 13.3267 1.02459ZM10.5383 5.21168C10.5383 6.09913 10.1858 6.95022 9.55826 7.57774C8.93075 8.20525 8.07965 8.55779 7.19221 8.55779C6.30477 8.55779 5.45367 8.20525 4.82616 7.57774C4.19864 6.95022 3.8461 6.09913 3.8461 5.21168C3.8461 4.32424 4.19864 3.47315 4.82616 2.84563C5.45367 2.21811 6.30477 1.86558 7.19221 1.86558C8.07965 1.86558 8.93075 2.21811 9.55826 2.84563C10.1858 3.47315 10.5383 4.32424 10.5383 5.21168ZM0.5 14.1346C0.5 15.25 1.61537 15.25 1.61537 15.25H12.7691C12.7691 15.25 13.8844 15.25 13.8844 14.1346C13.8844 13.0193 12.7691 9.67316 7.19221 9.67316C1.61537 9.67316 0.5 13.0193 0.5 14.1346ZM15.5575 5.1113C17.1045 3.5219 20.9726 6.30475 15.5575 9.88173C10.1435 6.30475 14.0105 3.5219 15.5575 5.11242V5.1113ZM17.2305 2.04962C17.8496 1.41386 19.3966 2.52699 17.2305 3.95801C15.0645 2.52699 16.6115 1.41386 17.2305 2.05073V2.04962Z" fill="white" fill-opacity="0.33"/>
</svg>
