<svg width="12" height="17" viewBox="0 0 12 17" fill="none" xmlns="http://www.w3.org/2000/svg">
<path d="M12.0004 6.37923L11.1671 7.8209L1.05872 1.98757L1.89206 0.545898L4.42539 2.00423L5.55872 1.6959L9.16706 3.77923L9.47539 4.9209L12.0004 6.37923ZM0.0253906 14.7876V4.78757H4.25039L10.0254 8.1209V14.7876C10.0254 15.2296 9.8498 15.6535 9.53723 15.9661C9.22467 16.2786 8.80075 16.4542 8.35872 16.4542H1.69206C1.25003 16.4542 0.826106 16.2786 0.513546 15.9661C0.200985 15.6535 0.0253906 15.2296 0.0253906 14.7876ZM1.69206 14.7876H8.35872V9.1209L3.74206 6.45423H1.69206V14.7876Z" fill="white"/>
</svg>
