<svg width="17" height="25" viewBox="0 0 17 25" fill="none" xmlns="http://www.w3.org/2000/svg">
<path fill-rule="evenodd" clip-rule="evenodd" d="M7.66958 0.0120312C6.62909 0.13533 5.9856 0.285382 5.2528 0.575558C1.6516 2.00154 -0.482531 5.70917 0.0933211 9.53931C0.459941 11.9779 1.89395 14.12 4.02485 15.4121C4.87039 15.9249 5.99622 16.341 6.92734 16.4849L7.30276 16.5429L7.31572 17.947L7.32873 19.351L6.23973 19.3521C5.28572 19.353 5.12652 19.3644 4.95514 19.4435C4.33361 19.7303 4.20821 20.4954 4.6995 21.003C4.94927 21.2611 5.19729 21.3074 6.3309 21.3074H7.32208L7.33685 22.8358C7.35153 24.3469 7.35299 24.3663 7.46773 24.5509C7.53156 24.6536 7.67305 24.7966 7.78207 24.8688C7.94723 24.9781 8.03463 25 8.30539 25C8.57615 25 8.66355 24.9781 8.82872 24.8688C8.93773 24.7966 9.07923 24.6536 9.14305 24.5509C9.25779 24.3663 9.25926 24.3469 9.27393 22.8358L9.2887 21.3074H10.2799C11.4135 21.3074 11.6615 21.2611 11.9113 21.003C12.4026 20.4954 12.2772 19.7303 11.6556 19.4435C11.4843 19.3644 11.3251 19.353 10.3711 19.3521L9.28205 19.351L9.29506 17.947L9.30802 16.5429L9.68345 16.4849C10.6146 16.341 11.7404 15.9249 12.5859 15.4121C17.3975 12.4945 18.0041 5.784 13.7929 2.06229C12.6296 1.03432 11.2029 0.362316 9.62593 0.0996757C9.20478 0.0295405 7.98348 -0.0251884 7.66958 0.0120312ZM9.61849 2.08385C10.8773 2.35672 11.8553 2.89359 12.7824 3.82065C14.0442 5.08255 14.6372 6.5146 14.6362 8.29766C14.6358 9.08886 14.5679 9.56141 14.3621 10.2051C13.6047 12.5743 11.6038 14.2512 9.13684 14.5845C8.48988 14.6719 8.12091 14.6719 7.47394 14.5845C5.00694 14.2512 3.00613 12.5743 2.24868 10.2051C2.04292 9.56141 1.97499 9.08886 1.97455 8.29766C1.97406 7.45384 2.05334 6.94186 2.2905 6.25753C2.62856 5.28185 3.07563 4.57346 3.82838 3.82065C4.87694 2.77215 6.03549 2.19845 7.52696 1.98917C8.01106 1.92123 9.09449 1.97029 9.61849 2.08385Z" fill="#2965FF"/>
</svg>
