<svg width="26" height="25" viewBox="0 0 26 25" fill="none" xmlns="http://www.w3.org/2000/svg">
<path fill-rule="evenodd" clip-rule="evenodd" d="M17.8341 0.0395824C17.6025 0.107336 17.302 0.427808 17.2343 0.679059C17.1172 1.11395 17.2912 1.57106 17.6615 1.80127C17.8477 1.91702 17.8541 1.91746 19.7441 1.94182L21.6399 1.96628L17.536 6.0698L13.4322 10.1734L12.9061 9.82154C12.0589 9.25505 11.2924 8.9087 10.3541 8.66845C7.50299 7.93838 4.5051 8.76213 2.41809 10.8491C1.13459 12.1326 0.352172 13.6815 0.0601711 15.517C-0.020057 16.0212 -0.020057 17.4099 0.0601711 17.9141C0.352172 19.7495 1.13459 21.2984 2.41809 22.5819C3.7016 23.8654 5.25049 24.6478 7.08595 24.9398C7.59011 25.0201 8.97884 25.0201 9.48301 24.9398C11.9858 24.5417 14.0726 23.1549 15.3931 21.0123C16.3285 19.4946 16.7548 17.5324 16.5338 15.7616C16.3571 14.3458 15.953 13.2522 15.1785 12.0939L14.8266 11.5678L18.9302 7.46396L23.0337 3.36009L23.0582 5.25959L23.0826 7.15909L23.2139 7.35731C23.4167 7.66365 23.6549 7.78771 24.0401 7.78771C24.3071 7.78771 24.3954 7.7654 24.56 7.65645C24.6691 7.5843 24.8106 7.44121 24.8744 7.33848L24.9905 7.15175L25.0041 3.97531L25.0178 0.798863L24.8934 0.544775C24.8114 0.377078 24.6987 0.242941 24.5618 0.150141L24.3546 0.00949688L21.1748 0.000984883C19.2542 -0.00415167 17.9313 0.0111112 17.8341 0.0395824ZM9.48159 10.4787C10.4228 10.6751 11.2837 11.0538 12.0599 11.6126C13.0491 12.3249 13.9486 13.5711 14.3175 14.7404C14.5541 15.4903 14.6168 15.9046 14.6168 16.7155C14.6168 17.8253 14.4199 18.6542 13.9332 19.5921C13.0054 21.3801 11.4735 22.5319 9.45243 22.9609C8.88673 23.081 7.68223 23.081 7.11652 22.9609C6.51599 22.8334 5.96378 22.649 5.52052 22.4281C3.68262 21.5116 2.47455 19.9347 2.03911 17.8835C1.91902 17.3178 1.91902 16.1133 2.03911 15.5476C2.31164 14.2637 2.86502 13.1974 3.7193 12.3098C4.70327 11.2875 6.05105 10.6066 7.48391 10.4081C7.94997 10.3435 9.01397 10.3811 9.48159 10.4787Z" fill="#2965FF"/>
</svg>
